<svg width="17" height="18" viewBox="0 0 62 62" fill="none" xmlns="http://www.w3.org/2000/svg">
<path d="M61.8882 21.1572C60.7881 12.0173 52.4098 5.15027 42.75 1.97064C47.1507 6.73404 50.2941 14.133 50.2941 23.2125H53.6913L39.5946 38.8688C39.2923 38.7963 39.0143 38.6875 38.6878 38.6875H32.8847V23.2125H46.4253C46.4253 9.285 38.0954 0 30.9503 0C23.8052 0 15.4753 9.285 15.4753 23.2125H29.016V38.6875H23.2128C22.8864 38.6875 22.6083 38.7963 22.3061 38.8688L8.20933 23.2125H11.6066C11.6066 14.133 14.7499 6.73404 19.1506 1.97064C9.49085 5.16236 1.11259 12.0294 0.0124118 21.1572C-0.120576 22.2574 0.834521 23.2125 1.94679 23.2125H2.9986L19.5254 41.577C19.4408 41.8913 19.332 42.2056 19.332 42.5563V58.0312C19.332 60.1712 21.0608 61.9 23.2007 61.9H38.6757C40.8156 61.9 42.5445 60.1712 42.5445 58.0312V42.5563C42.5445 42.2056 42.4357 41.9034 42.351 41.577L58.89 23.2125H59.9418C61.0661 23.2125 62.0212 22.2695 61.8882 21.1572Z" fill="url(#paint0_linear_24_75)"/>
<defs>
<linearGradient id="paint0_linear_24_75" x1="30.9503" y1="-4.49118e-07" x2="38.7765" y2="43.8117" gradientUnits="userSpaceOnUse">
<stop stop-color="#F7C243"/>
<stop offset="1" stop-color="#FD902B"/>
</linearGradient>
</defs>
</svg>
