<svg width="15" height="16" viewBox="0 0 54 55" fill="none" xmlns="http://www.w3.org/2000/svg">
<path d="M23.9025 1.06326C25.7305 -0.336191 28.2714 -0.336191 30.0994 1.06326L51.7997 17.6511C54.5636 19.7634 53.081 24.1717 49.6086 24.1892H4.38886C0.920845 24.1717 -0.566073 19.7634 2.20222 17.6511L23.9025 1.06326ZM26.9988 16.5359C27.8687 16.5359 28.7029 16.1904 29.318 15.5753C29.9331 14.9602 30.2787 14.1259 30.2787 13.256C30.2787 12.3861 29.9331 11.5518 29.318 10.9367C28.7029 10.3216 27.8687 9.97602 26.9988 9.97602C26.1288 9.97602 25.2946 10.3216 24.6795 10.9367C24.0644 11.5518 23.7188 12.3861 23.7188 13.256C23.7188 14.1259 24.0644 14.9602 24.6795 15.5753C25.2946 16.1904 26.1288 16.5359 26.9988 16.5359ZM7.31896 28.5625V41.6823H13.8789V28.5625H7.31896ZM18.2522 28.5625V41.6823H24.8121V28.5625H18.2522ZM29.1854 28.5625V41.6823H35.7453V28.5625H29.1854ZM40.1186 28.5625V41.6823H46.6785V28.5625H40.1186ZM0.759033 51.5222C0.759033 48.5047 3.20807 46.0556 6.22564 46.0556H47.7719C50.7894 46.0556 53.2385 48.5047 53.2385 51.5222V52.6156C53.2385 53.1955 53.0081 53.7517 52.598 54.1617C52.1879 54.5718 51.6318 54.8022 51.0518 54.8022H2.94568C2.36574 54.8022 1.80956 54.5718 1.39949 54.1617C0.989411 53.7517 0.759033 53.1955 0.759033 52.6156V51.5222Z" fill="url(#paint0_linear_24_58)"/>
<defs>
<linearGradient id="paint0_linear_24_58" x1="26.999" y1="0.0136715" x2="34.2107" y2="38.6845" gradientUnits="userSpaceOnUse">
<stop stop-color="#F7C243"/>
<stop offset="1" stop-color="#FD902B"/>
</linearGradient>
</defs>
</svg>
