<svg width="15" height="16" viewBox="0 0 64 55" fill="none" xmlns="http://www.w3.org/2000/svg">
<path d="M31.9726 0C30.7741 -1.78585e-08 29.5874 0.236055 28.4802 0.694689C27.3729 1.15332 26.3669 1.82555 25.5194 2.67299C24.672 3.52044 23.9998 4.5265 23.5411 5.63374C23.0825 6.74098 22.8464 7.92771 22.8464 9.12617C22.8464 10.3246 23.0825 11.5114 23.5411 12.6186C23.9998 13.7259 24.672 14.7319 25.5194 15.5794C26.3669 16.4268 27.3729 17.099 28.4802 17.5577C29.5874 18.0163 30.7741 18.2524 31.9726 18.2524C34.393 18.2524 36.7143 17.2908 38.4258 15.5794C40.1373 13.8679 41.0988 11.5466 41.0988 9.12617C41.0988 6.70576 40.1373 4.38448 38.4258 2.67299C36.7143 0.961505 34.393 0 31.9726 0ZM52.5271 4.55852C50.7099 4.55852 48.9672 5.28037 47.6823 6.56527C46.3974 7.85018 45.6756 9.59288 45.6756 11.41C45.6756 13.2271 46.3974 14.9698 47.6823 16.2547C48.9672 17.5396 50.7099 18.2615 52.5271 18.2615C54.3442 18.2615 56.0869 17.5396 57.3718 16.2547C58.6567 14.9698 59.3785 13.2271 59.3785 11.41C59.3785 9.59288 58.6567 7.85018 57.3718 6.56527C56.0869 5.28037 54.3442 4.55852 52.5271 4.55852ZM11.4182 4.55852C9.60104 4.55852 7.85834 5.28037 6.57343 6.56527C5.28853 7.85018 4.56668 9.59288 4.56668 11.41C4.56668 13.2271 5.28853 14.9698 6.57343 16.2547C7.85834 17.5396 9.60104 18.2615 11.4182 18.2615C13.2353 18.2615 14.978 17.5396 16.2629 16.2547C17.5478 14.9698 18.2696 13.2271 18.2696 11.41C18.2696 9.59288 17.5478 7.85018 16.2629 6.56527C14.978 5.28037 13.2353 4.55852 11.4182 4.55852ZM18.2696 27.3648C18.2781 26.159 18.763 25.0054 19.6187 24.1557C20.4744 23.306 21.6314 22.8291 22.8373 22.8291H41.1079C42.3193 22.8291 43.4811 23.3104 44.3377 24.167C45.1943 25.0236 45.6756 26.1854 45.6756 27.3968V41.0998C45.6768 42.5374 45.4517 43.9663 45.0087 45.334C43.9973 48.4341 41.9138 51.072 39.1325 52.7742C36.3511 54.4764 33.054 55.1313 29.8333 54.6213C26.6125 54.1113 23.679 52.4697 21.5596 49.9915C19.4403 47.5133 18.2738 44.3607 18.2696 41.0998V27.3648ZM13.702 27.3968C13.702 25.7296 14.1451 24.172 14.9261 22.8291H4.56668C3.35526 22.8291 2.19346 23.3104 1.33686 24.167C0.480258 25.0236 -0.00097593 26.1854 -0.00097593 27.3968V38.8159C-0.00159798 40.6855 0.456821 42.5266 1.33403 44.1776C2.21123 45.8286 3.48038 47.239 5.03003 48.2849C6.57968 49.3307 8.36242 49.9801 10.2217 50.176C12.081 50.3719 13.9599 50.1083 15.6935 49.4083C14.3816 46.8338 13.6991 43.9847 13.702 41.0952V27.3968ZM50.2432 27.3968V41.0998C50.2432 44.0916 49.5261 46.9144 48.2517 49.4083C49.9853 50.1083 51.8643 50.3719 53.7235 50.176C55.5828 49.9801 57.3655 49.3307 58.9152 48.2849C60.4648 47.239 61.734 45.8286 62.6112 44.1776C63.4884 42.5266 63.9468 40.6855 63.9462 38.8159V27.3968C63.9462 26.1854 63.465 25.0236 62.6084 24.167C61.7518 23.3104 60.59 22.8291 59.3785 22.8291H49.0191C49.7956 24.172 50.2432 25.7296 50.2432 27.3968Z" fill="url(#paint0_linear_24_63)"/>
<defs>
<linearGradient id="paint0_linear_24_63" x1="31.9726" y1="-3.97531e-07" x2="37.9571" y2="39.1009" gradientUnits="userSpaceOnUse">
<stop stop-color="#F7C243"/>
<stop offset="1" stop-color="#FD902B"/>
</linearGradient>
</defs>
</svg>
