<svg width="47" height="48" viewBox="0 0 47 48" fill="none" xmlns="http://www.w3.org/2000/svg">
<path d="M26.09 18.89C25.27 19.14 24.41 19.28 23.51 19.28H23.5C22.6 19.28 21.73 19.14 20.92 18.89C20.91 18.89 20.91 18.89 20.91 18.89L20.0934 22.88H15.91V47.5H30.83V22.88H26.9066L26.09 18.89Z" fill="url(#paint0_linear_1_612)"/>
<path d="M15.6066 1.6875H31.3976C31.8323 1.6875 32.1846 1.33508 32.1846 0.900391V0.786987C32.1846 0.352295 31.8323 0 31.3976 0H15.6066C15.1719 0 14.8196 0.352295 14.8196 0.786987V0.900391C14.8196 1.33508 15.1719 1.6875 15.6066 1.6875Z" fill="url(#paint1_linear_1_612)"/>
<path d="M10.4685 7.79297C10.8774 10.6868 13.3201 12.8733 16.2112 13.0248C17.2289 16.0776 20.1063 18.2844 23.499 18.2844H23.5052C26.8979 18.2844 29.7753 16.0776 30.7929 13.0248C33.6845 12.8735 36.1274 10.6868 36.5354 7.79297L36.9138 5.1123C37.0115 4.42285 36.8054 3.72559 36.3484 3.19922C35.8913 2.67285 35.2292 2.37109 34.532 2.37109H31.1907V1.6875H15.8135V2.37109H12.4724C11.7756 2.37109 11.1135 2.67285 10.6565 3.19922C10.1994 3.72461 9.9929 4.42188 10.0901 5.1123L10.4685 7.79297ZM34.532 4.37109C34.6931 4.37109 34.7932 4.45898 34.8381 4.51074C34.8835 4.5625 34.9558 4.67383 34.9333 4.83301L34.5549 7.51367C34.3031 9.29761 32.9004 10.6805 31.1714 10.9797C31.1777 10.8528 31.1907 10.7274 31.1907 10.5989V4.37109H34.532ZM19.7751 9.08398C19.8576 8.82812 20.0744 8.64453 20.3406 8.60547L22.091 8.35059L22.8738 6.76562C23.1111 6.28516 23.8933 6.28516 24.1306 6.76562L24.9133 8.35156L26.6623 8.60449C26.9294 8.64453 27.1457 8.82715 27.2283 9.08301C27.3108 9.33789 27.2429 9.61328 27.051 9.80078L25.7849 11.0342L26.0837 12.7764C26.1286 13.042 26.0217 13.3047 25.8049 13.4619C25.6819 13.5518 25.5383 13.5967 25.3933 13.5967C25.2824 13.5967 25.1711 13.5703 25.0676 13.5166L23.5022 12.6934L21.9372 13.5156C21.6985 13.6406 21.4158 13.6182 21.1985 13.4619C20.9812 13.3037 20.8747 13.041 20.9206 12.7764L21.219 11.0342L19.9533 9.80078C19.7615 9.61426 19.6931 9.33887 19.7751 9.08398ZM12.1662 4.51074C12.2112 4.45898 12.3113 4.37109 12.4724 4.37109H15.8135V10.5989C15.8135 10.7274 15.8265 10.8528 15.8327 10.9797C14.1037 10.6804 12.7008 9.29749 12.449 7.51367L12.0705 4.83301C12.0481 4.67383 12.1208 4.5625 12.1662 4.51074Z" fill="url(#paint2_linear_1_612)"/>
<path d="M22.2312 11.0498L22.0085 12.3486L23.176 11.7354C23.2771 11.6807 23.3889 11.6543 23.5012 11.6543C23.614 11.6543 23.7273 11.6816 23.8308 11.7363L24.9958 12.3486L24.7727 11.0488C24.7336 10.8242 24.8079 10.5928 24.9719 10.4307L25.9187 9.50781L24.6135 9.31836C24.3821 9.2832 24.1848 9.13867 24.0842 8.93066L23.5022 7.75195L22.9182 8.93457C22.8171 9.13965 22.6204 9.28418 22.3923 9.31738L21.0857 9.50781L22.03 10.4277C22.196 10.5928 22.2703 10.8242 22.2312 11.0498Z" fill="url(#paint3_linear_1_612)"/>
<path d="M14.91 31H0V47.5H14.91V31Z" fill="url(#paint4_linear_1_612)"/>
<path d="M46.74 28.75H31.83V47.5H46.74V28.75Z" fill="url(#paint5_linear_1_612)"/>
<defs>
<linearGradient id="paint0_linear_1_612" x1="23.37" y1="18.89" x2="29.776" y2="37.5915" gradientUnits="userSpaceOnUse">
<stop stop-color="#F7C243"/>
<stop offset="1" stop-color="#FD902B"/>
</linearGradient>
<linearGradient id="paint1_linear_1_612" x1="23.5021" y1="-1.22437e-08" x2="23.5235" y2="1.23212" gradientUnits="userSpaceOnUse">
<stop stop-color="#F7C243"/>
<stop offset="1" stop-color="#FD902B"/>
</linearGradient>
<linearGradient id="paint2_linear_1_612" x1="23.5021" y1="1.6875" x2="24.8234" y2="13.6636" gradientUnits="userSpaceOnUse">
<stop stop-color="#F7C243"/>
<stop offset="1" stop-color="#FD902B"/>
</linearGradient>
<linearGradient id="paint3_linear_1_612" x1="23.5022" y1="7.75195" x2="24.0566" y2="11.015" gradientUnits="userSpaceOnUse">
<stop stop-color="#F7C243"/>
<stop offset="1" stop-color="#FD902B"/>
</linearGradient>
<linearGradient id="paint4_linear_1_612" x1="7.45499" y1="31" x2="9.74768" y2="42.5978" gradientUnits="userSpaceOnUse">
<stop stop-color="#F7C243"/>
<stop offset="1" stop-color="#FD902B"/>
</linearGradient>
<linearGradient id="paint5_linear_1_612" x1="39.285" y1="28.75" x2="42.2135" y2="41.7865" gradientUnits="userSpaceOnUse">
<stop stop-color="#F7C243"/>
<stop offset="1" stop-color="#FD902B"/>
</linearGradient>
</defs>
</svg>
