<svg width="54" height="54" viewBox="0 0 54 54" fill="none" xmlns="http://www.w3.org/2000/svg">
<path d="M44.4165 35.5334C41.97 35.5334 39.7581 36.5221 38.1511 38.1231L27.8343 32.007C28.4959 30.3494 28.871 28.5459 28.871 26.6497C28.871 24.7543 28.4959 22.9501 27.8323 21.2925L38.1511 15.1764C39.7581 16.7767 41.97 17.7661 44.4165 17.7661C49.324 17.7667 53.2995 13.7912 53.2995 8.88303C53.2995 3.97747 49.324 0 44.4165 0C39.5109 0 35.5328 3.97747 35.5328 8.88303C35.5328 9.74182 35.6933 10.5526 35.9192 11.3381L25.5744 17.4669C22.9281 14.2596 18.9207 12.2142 14.4355 12.2142C6.46256 12.2142 0 18.6775 0 26.6497C0 34.624 6.46256 41.0846 14.4355 41.0846C18.92 41.0846 22.9281 39.0405 25.5744 35.8326L35.9192 41.9627C35.6933 42.7462 35.5328 43.559 35.5328 44.4158C35.5328 49.324 39.5109 53.2995 44.4165 53.2995C49.324 53.2995 53.2995 49.324 53.2995 44.4158C53.2995 39.5103 49.324 35.5334 44.4165 35.5334ZM44.4165 4.44185C46.8649 4.44185 48.8576 6.43391 48.8576 8.88369C48.8576 11.3341 46.8649 13.3255 44.4165 13.3255C41.9674 13.3249 39.9746 11.3341 39.9746 8.88303C39.9746 6.43392 41.9674 4.44185 44.4165 4.44185ZM14.4355 36.6434C8.925 36.6434 4.44185 32.1602 4.44185 26.6497C4.44185 21.1392 8.925 16.6561 14.4355 16.6561C19.946 16.6561 24.4292 21.1392 24.4292 26.6497C24.4292 32.1602 19.946 36.6434 14.4355 36.6434ZM44.4165 48.8583C41.9674 48.8583 39.9746 46.8649 39.9746 44.4158C39.9746 41.968 41.9674 39.9746 44.4165 39.9746C46.8649 39.9746 48.8576 41.968 48.8576 44.4158C48.8576 46.8649 46.8649 48.8583 44.4165 48.8583Z" fill="white"/>
</svg>
