<svg width="33" height="28" viewBox="0 0 33 28" fill="none" xmlns="http://www.w3.org/2000/svg">
<path d="M16.3399 0C15.7274 -9.12647e-09 15.1209 0.120634 14.5551 0.355015C13.9892 0.589396 13.4751 0.932933 13.042 1.36601C12.6089 1.79909 12.2654 2.31323 12.031 2.87908C11.7966 3.44492 11.676 4.05139 11.676 4.66386C11.676 5.27633 11.7966 5.8828 12.031 6.44864C12.2654 7.01449 12.6089 7.52863 13.042 7.96171C13.4751 8.39479 13.9892 8.73833 14.5551 8.97271C15.1209 9.20709 15.7274 9.32772 16.3399 9.32772C17.5768 9.32772 18.7631 8.83635 19.6377 7.96171C20.5123 7.08706 21.0037 5.90079 21.0037 4.66386C21.0037 3.42693 20.5123 2.24066 19.6377 1.36601C18.7631 0.491369 17.5768 0 16.3399 0ZM26.844 2.3296C25.9154 2.3296 25.0248 2.69849 24.3682 3.35513C23.7115 4.01177 23.3426 4.90236 23.3426 5.83099C23.3426 6.75962 23.7115 7.65022 24.3682 8.30685C25.0248 8.96349 25.9154 9.33239 26.844 9.33239C27.7727 9.33239 28.6633 8.96349 29.3199 8.30685C29.9765 7.65022 30.3454 6.75962 30.3454 5.83099C30.3454 4.90236 29.9765 4.01177 29.3199 3.35513C28.6633 2.69849 27.7727 2.3296 26.844 2.3296ZM5.83566 2.3296C4.90703 2.3296 4.01644 2.69849 3.3598 3.35513C2.70316 4.01177 2.33426 4.90236 2.33426 5.83099C2.33426 6.75962 2.70316 7.65022 3.3598 8.30685C4.01644 8.96349 4.90703 9.33239 5.83566 9.33239C6.76429 9.33239 7.65488 8.96349 8.31152 8.30685C8.96816 7.65022 9.33706 6.75962 9.33706 5.83099C9.33706 4.90236 8.96816 4.01177 8.31152 3.35513C7.65488 2.69849 6.76429 2.3296 5.83566 2.3296ZM9.33706 13.9846C9.34137 13.3683 9.58921 12.7788 10.0265 12.3446C10.4638 11.9103 11.0551 11.6666 11.6713 11.6667H21.0084C21.6275 11.6667 22.2212 11.9126 22.659 12.3503C23.0967 12.7881 23.3426 13.3818 23.3426 14.0009V21.0037C23.3433 21.7384 23.2283 22.4686 23.0018 23.1676C22.485 24.7518 21.4202 26.1 19.9988 26.9699C18.5774 27.8397 16.8925 28.1744 15.2465 27.9138C13.6006 27.6531 12.1015 26.8143 11.0184 25.5478C9.93529 24.2813 9.33916 22.6702 9.33706 21.0037V13.9846ZM7.00279 14.0009C7.00279 13.1489 7.22922 12.3529 7.62838 11.6667H2.33426C1.71518 11.6667 1.12145 11.9126 0.68369 12.3503C0.245931 12.7881 3.23093e-07 13.3818 3.23093e-07 14.0009V19.8366C-0.000317572 20.792 0.233954 21.7329 0.682242 22.5766C1.13053 23.4204 1.77912 24.1411 2.57106 24.6756C3.36299 25.2101 4.27405 25.542 5.22422 25.6421C6.17438 25.7422 7.1346 25.6075 8.02053 25.2497C7.35012 23.934 7.00132 22.4781 7.00279 21.0014V14.0009ZM25.6769 14.0009V21.0037C25.6769 22.5327 25.3104 23.9752 24.6592 25.2497C25.5451 25.6075 26.5053 25.7422 27.4555 25.6421C28.4057 25.542 29.3167 25.2101 30.1086 24.6756C30.9006 24.1411 31.5492 23.4204 31.9975 22.5766C32.4458 21.7329 32.68 20.792 32.6797 19.8366V14.0009C32.6797 13.3818 32.4338 12.7881 31.996 12.3503C31.5583 11.9126 30.9645 11.6667 30.3454 11.6667H25.0513C25.4482 12.3529 25.6769 13.1489 25.6769 14.0009Z" fill="white"/>
</svg>
