<svg width="50" height="50" viewBox="0 0 50 50" fill="none" xmlns="http://www.w3.org/2000/svg">
<path d="M25 32.8125C22.928 32.8125 20.9409 31.9894 19.4757 30.5243C18.0106 29.0591 17.1875 27.072 17.1875 25C17.1875 22.928 18.0106 20.9409 19.4757 19.4757C20.9409 18.0106 22.928 17.1875 25 17.1875C27.072 17.1875 29.0591 18.0106 30.5243 19.4757C31.9894 20.9409 32.8125 22.928 32.8125 25C32.8125 27.072 31.9894 29.0591 30.5243 30.5243C29.0591 31.9894 27.072 32.8125 25 32.8125ZM25 20.3125C23.7568 20.3125 22.5645 20.8064 21.6854 21.6854C20.8064 22.5645 20.3125 23.7568 20.3125 25C20.3125 26.2432 20.8064 27.4355 21.6854 28.3146C22.5645 29.1936 23.7568 29.6875 25 29.6875C26.2432 29.6875 27.4355 29.1936 28.3146 28.3146C29.1936 27.4355 29.6875 26.2432 29.6875 25C29.6875 23.7568 29.1936 22.5645 28.3146 21.6854C27.4355 20.8064 26.2432 20.3125 25 20.3125Z" fill="black"/>
<path d="M42.8438 30.7656C41.5805 34.668 39.0724 38.0485 35.704 40.3889C32.3355 42.7294 28.2925 43.9008 24.1946 43.7234C20.0966 43.5461 16.1699 42.0299 13.0162 39.4072C9.8625 36.7845 7.65582 33.2 6.73438 29.2031L10.2812 28.5L3.53125 21.5156L0 30.5468L3.73438 29.8125C4.77731 34.5042 7.33637 38.7218 11.0161 41.8136C14.6958 44.9054 19.2914 46.6993 24.0926 46.918C28.8939 47.1367 33.6335 45.7681 37.5791 43.0237C41.5247 40.2793 44.4567 36.3118 45.9219 31.7343L42.8438 30.7656ZM46.3281 20.1875C45.2852 15.4958 42.7261 11.2781 39.0464 8.18634C35.3667 5.09453 30.7711 3.30066 25.9699 3.08194C21.1686 2.86322 16.429 4.23182 12.4834 6.97624C8.53776 9.72067 5.60582 13.6882 4.14062 18.2656L7.10938 19.2343C8.37263 15.332 10.8807 11.9515 14.2492 9.61099C17.6176 7.27051 21.6606 6.09917 25.7586 6.27649C29.8565 6.45381 33.7832 7.97002 36.9369 10.5927C40.0906 13.2154 42.2973 16.7999 43.2188 20.7968L39.6719 21.5L46.4219 28.4687L50 19.4531L46.3281 20.1875Z" fill="black"/>
</svg>
