<svg width="37" height="48" viewBox="0 0 37 48" fill="none" xmlns="http://www.w3.org/2000/svg">
<path d="M35.1732 20.4953L26.624 18.0793C25.9261 17.882 25.5303 17.1482 25.7515 16.4616L29.8281 3.80628C30.4411 3.00748 30.4217 1.86222 29.7258 1.07862C28.9346 0.18863 27.5696 0.102647 26.6768 0.887489L1.21578 23.28C0.323132 24.0651 0.240896 25.4237 1.03198 26.3144C1.31258 26.6311 1.68072 26.8586 2.09018 26.9682C2.16474 26.9882 2.2404 27.0025 2.31636 27.0145C2.3885 27.0423 2.46238 27.0671 2.53881 27.0876L8.94142 28.8032C9.71894 29.0115 10.1148 29.8732 9.76364 30.5927L3.21975 44.0054C2.50032 44.7586 2.41805 45.9419 3.07657 46.7938C3.36554 47.1688 3.77071 47.4385 4.22901 47.561C4.85634 47.7291 5.55188 47.615 6.10577 47.1913L35.7891 24.4868C36.0627 24.2776 36.2814 24.0057 36.4267 23.6941C36.529 23.5286 36.6119 23.3474 36.6673 23.1509C36.9905 22.0088 36.3214 20.8199 35.1732 20.4953Z" fill="url(#paint0_linear_1_681)"/>
<defs>
<linearGradient id="paint0_linear_1_681" x1="25.1171" y1="-0.526313" x2="25.1171" y2="36.0564" gradientUnits="userSpaceOnUse">
<stop stop-color="#F7C243"/>
<stop offset="1" stop-color="#FD902B"/>
</linearGradient>
</defs>
</svg>
